<svg xmlns="http://www.w3.org/2000/svg" width="216" height="23" fill="none" style=""><rect id="backgroundrect" width="100%" height="100%" x="0" y="0" fill="none" stroke="none"/>



<g class="currentLayer" style=""><title>Layer 1</title><path d="M39.689,11.723400161743164 C40.5983,12.002100161743165 41.295,12.471400161743166 41.779,13.131400161743166 C42.263,13.776700161743165 42.505,14.576100161743163 42.505,15.529400161743162 C42.505,16.380100161743165 42.2777,17.128100161743163 41.823,17.77340016174316 C41.383,18.404100161743166 40.745,18.89540016174316 39.909,19.247400161743165 C39.0877,19.599400161743162 38.1197,19.775400161743164 37.005,19.775400161743164 H31.153 C30.551699999999997,19.775400161743164 30.0897,19.614100161743167 29.767000000000003,19.291400161743162 C29.4443,18.968700161743165 29.283,18.50670016174316 29.283,17.905400161743167 V6.1354001617431635 C29.283,5.534100161743165 29.4443,5.072100161743165 29.767000000000003,4.749400161743164 C30.0897,4.426700161743163 30.551699999999997,4.2654001617431625 31.153,4.2654001617431625 H36.785 C38.413,4.2654001617431625 39.7037,4.632100161743164 40.657,5.365400161743164 C41.625,6.084100161743166 42.109,7.059400161743163 42.109,8.291400161743162 C42.109,9.083400161743164 41.8963,9.787400161743165 41.471000000000004,10.403400161743164 C41.0457,11.004700161743163 40.4517,11.444700161743164 39.689,11.723400161743164 zM33.221000000000004,10.359400161743164 H36.103 C36.8657,10.359400161743164 37.423,10.242100161743164 37.775,10.007400161743163 C38.127,9.772700161743163 38.303,9.398700161743164 38.303,8.885400161743163 C38.303,8.342700161743164 38.127,7.946700161743163 37.775,7.697400161743165 C37.423,7.448100161743163 36.8657,7.323400161743166 36.103,7.323400161743166 H33.221000000000004 V10.359400161743164 zM36.499,16.717400161743164 C37.3057,16.717400161743164 37.8777,16.592700161743167 38.215,16.343400161743162 C38.567,16.079400161743166 38.743,15.654100161743166 38.743,15.067400161743166 C38.743,14.480700161743165 38.567,14.062700161743166 38.215,13.81340016174316 C37.8777,13.549400161743165 37.3057,13.417400161743167 36.499,13.417400161743167 H33.221000000000004 V16.717400161743164 H36.499 zM51.9499,19.973400161743164 C50.3659,19.973400161743164 48.9872,19.650700161743167 47.8139,19.00540016174316 C46.6552,18.345400161743164 45.7605,17.421400161743165 45.1299,16.233400161743162 C44.4992,15.030700161743162 44.1839,13.622700161743161 44.1839,12.009400161743166 C44.1839,10.396100161743163 44.4992,8.995400161743163 45.1299,7.807400161743164 C45.7605,6.604700161743164 46.6552,5.6807001617431645 47.8139,5.035400161743166 C48.9872,4.390100161743163 50.3659,4.067400161743166 51.9499,4.067400161743166 C53.5339,4.067400161743166 54.9052,4.390100161743163 56.0639,5.035400161743166 C57.2372,5.6807001617431645 58.1319,6.604700161743164 58.7479,7.807400161743164 C59.3785,8.995400161743163 59.6939,10.396100161743163 59.6939,12.009400161743166 C59.6939,13.622700161743161 59.3785,15.030700161743162 58.7479,16.233400161743162 C58.1172,17.421400161743165 57.2152,18.345400161743164 56.0419,19.00540016174316 C54.8832,19.650700161743167 53.5192,19.973400161743164 51.9499,19.973400161743164 zM51.9499,16.87140016174316 C53.1232,16.87140016174316 54.0399,16.460700161743162 54.6999,15.639400161743161 C55.3599,14.803400161743163 55.6899,13.593400161743162 55.6899,12.009400161743166 C55.6899,10.425400161743163 55.3525,9.222700161743163 54.6779,8.401400161743165 C54.0179,7.5801001617431645 53.1085,7.169400161743162 51.9499,7.169400161743162 C50.7765,7.169400161743162 49.8599,7.5801001617431645 49.1999,8.401400161743165 C48.5399,9.208100161743165 48.2099,10.410700161743165 48.2099,12.009400161743166 C48.2099,13.608100161743167 48.5399,14.818100161743168 49.1999,15.639400161743161 C49.8599,16.460700161743162 50.7765,16.87140016174316 51.9499,16.87140016174316 zM74.225,16.849400161743162 C74.5477,17.216100161743164 74.709,17.619400161743165 74.709,18.059400161743163 C74.709,18.558100161743162 74.511,18.998100161743167 74.115,19.379400161743163 C73.7337,19.746100161743165 73.301,19.929400161743168 72.817,19.929400161743168 C72.3037,19.929400161743168 71.8564,19.70940016174316 71.475,19.269400161743164 L67.691,14.737400161743167 L63.840999999999994,19.269400161743164 C63.4597,19.70940016174316 63.0197,19.929400161743168 62.521,19.929400161743168 C62.037000000000006,19.929400161743168 61.596999999999994,19.73870016174316 61.20099999999999,19.357400161743165 C60.8197,18.97610016174316 60.629,18.536100161743164 60.629,18.037400161743165 C60.629,17.612100161743165 60.783,17.216100161743164 61.090999999999994,16.849400161743162 L65.315,11.965400161743165 L61.20099999999999,7.191400161743164 C60.8784,6.810100161743165 60.717,6.414100161743164 60.717,6.003400161743166 C60.717,5.504700161743163 60.907700000000006,5.072100161743165 61.289,4.705400161743164 C61.685,4.324100161743164 62.132400000000004,4.133400161743165 62.631,4.133400161743165 C63.144400000000005,4.133400161743165 63.5917,4.3534001617431635 63.973,4.793400161743165 L67.691,9.193400161743163 L71.387,4.793400161743165 C71.739,4.3534001617431635 72.1717,4.133400161743165 72.685,4.133400161743165 C73.1837,4.133400161743165 73.6237,4.324100161743164 74.005,4.705400161743164 C74.401,5.072100161743165 74.599,5.504700161743163 74.599,6.003400161743166 C74.599,6.428700161743166 74.445,6.824700161743163 74.137,7.191400161743164 L70.023,11.965400161743165 L74.225,16.849400161743162 z" fill="#2B2B2B" id="svg_1" class=""/><path d="M18.75,15.087900161743164 C18.7174,15.511100161743165 18.5384,15.820300161743162 18.2129,16.015600161743166 L9.9609,20.605500161743166 C9.7982,20.73570016174316 9.6029,20.80080016174316 9.375,20.80080016174316 C9.1471,20.80080016174316 8.9518,20.73570016174316 8.7891,20.605500161743166 L0.5371100000000002,16.015600161743166 C0.21159000000000017,15.820300161743162 0.03255000000000008,15.511100161743165 0,15.087900161743164 V5.712900161743164 C0.03255000000000008,5.289700161743163 0.21159000000000017,4.980500161743166 0.5371100000000002,4.7852001617431625 L8.7891,0.19530016174316245 C8.9518,0.06510016174316391 9.1471,1.6174316286310386e-7 9.375,1.6174316286310386e-7 C9.6029,1.6174316286310386e-7 9.7982,0.06510016174316391 9.9609,0.19530016174316245 L18.2129,4.7852001617431625 C18.5384,4.980500161743166 18.7174,5.289700161743163 18.75,5.712900161743164 V15.087900161743164 zM9.375,2.246100161743165 L3.1738299999999997,5.712900161743164 L9.375,9.179700161743163 L15.5762,5.712900161743164 L9.375,2.246100161743165 zM2.09961,14.453100161743166 L8.3496,18.01760016174316 V10.986300161743163 L2.09961,7.470700161743164 V14.453100161743166 zM16.6504,14.453100161743166 V7.470700161743164 L10.4004,10.986300161743163 V18.01760016174316 L16.6504,14.453100161743166 z" fill="#2B2B2B" id="svg_2" class=""/><path d="M89.8867,10.540000161743166 H86.4756 V19.775400161743164 H85.6348 V10.540000161743166 H82.2305 V9.822300161743165 H89.8867 V10.540000161743166 zM93.4893,19.91210016174316 C92.8604,19.91210016174316 92.2907,19.757200161743164 91.7803,19.447300161743165 C91.2744,19.137400161743166 90.8802,18.706700161743164 90.5977,18.155300161743163 C90.3151,17.599300161743166 90.1738,16.977200161743163 90.1738,16.289100161743164 V15.995100161743167 C90.1738,15.284200161743165 90.3105,14.643900161743161 90.584,14.074200161743164 C90.862,13.504600161743163 91.2471,13.058000161743166 91.7393,12.734400161743164 C92.2314,12.406300161743165 92.7646,12.242200161743163 93.3389,12.242200161743163 C94.2367,12.242200161743163 94.9476,12.549800161743164 95.4717,13.165000161743166 C96.0003,13.775700161743167 96.2646,14.612000161743161 96.2646,15.673800161743166 V16.131800161743165 H90.9873 V16.289100161743164 C90.9873,17.127600161743167 91.2266,17.827200161743164 91.7051,18.38770016174316 C92.1882,18.943700161743166 92.7943,19.221700161743165 93.5234,19.221700161743165 C93.9609,19.221700161743165 94.346,19.141900161743166 94.6787,18.982400161743165 C95.016,18.822900161743163 95.3213,18.56770016174316 95.5947,18.216800161743166 L96.1074,18.606500161743163 C95.5059,19.476900161743167 94.6331,19.91210016174316 93.4893,19.91210016174316 zM93.3389,12.939500161743162 C92.7236,12.939500161743162 92.2041,13.165000161743166 91.7803,13.616200161743166 C91.361,14.067400161743166 91.1058,14.673500161743164 91.0146,15.434600161743163 H95.4512 V15.345700161743167 C95.4284,14.634800161743165 95.2256,14.056000161743164 94.8428,13.609400161743167 C94.46,13.162800161743164 93.9587,12.939500161743162 93.3389,12.939500161743162 zM98.603,12.378900161743164 L98.63,13.582000161743167 C98.903,13.135400161743163 99.245,12.800500161743166 99.655,12.577200161743164 C100.065,12.353900161743162 100.521,12.242200161743163 101.022,12.242200161743163 C102.189,12.242200161743163 102.93,12.720700161743164 103.244,13.67770016174316 C103.508,13.217500161743168 103.862,12.864300161743166 104.304,12.618200161743165 C104.746,12.367500161743163 105.233,12.242200161743163 105.767,12.242200161743163 C107.353,12.242200161743163 108.161,13.108100161743167 108.193,14.839900161743167 V19.775400161743164 H107.373 V14.901400161743162 C107.368,14.240600161743167 107.225,13.750700161743161 106.942,13.431600161743162 C106.664,13.112600161743167 106.209,12.953100161743166 105.575,12.953100161743166 C104.987,12.962200161743162 104.491,13.153700161743167 104.085,13.527400161743167 C103.679,13.896500161743162 103.454,14.347700161743163 103.408,14.880900161743163 V19.775400161743164 H102.588 V14.839900161743167 C102.583,14.206400161743161 102.433,13.734700161743163 102.137,13.424800161743164 C101.845,13.110400161743165 101.394,12.953100161743166 100.783,12.953100161743166 C100.268,12.953100161743166 99.826,13.101200161743165 99.457,13.397500161743167 C99.088,13.689100161743163 98.814,14.12440016174316 98.637,14.703100161743166 V19.775400161743164 H97.816 V12.378900161743164 H98.603 zM116.219,16.152400161743167 C116.219,17.305300161743162 115.964,18.221400161743162 115.453,18.900400161743164 C114.943,19.574900161743166 114.259,19.91210016174316 113.402,19.91210016174316 C112.391,19.91210016174316 111.616,19.556600161743162 111.078,18.845700161743167 V22.619200161743166 H110.265 V12.378900161743164 H111.023 L111.064,13.424800161743164 C111.598,12.636400161743165 112.37,12.242200161743163 113.382,12.242200161743163 C114.266,12.242200161743163 114.959,12.577200161743164 115.46,13.247100161743163 C115.966,13.917000161743161 116.219,14.846700161743165 116.219,16.036100161743164 V16.152400161743167 zM115.398,16.008800161743167 C115.398,15.065400161743163 115.205,14.320300161743162 114.817,13.773400161743162 C114.43,13.226600161743164 113.89,12.953100161743166 113.197,12.953100161743166 C112.696,12.953100161743166 112.265,13.073900161743161 111.905,13.315400161743163 C111.545,13.557000161743161 111.27,13.907900161743164 111.078,14.368200161743161 V17.916000161743163 C111.274,18.339900161743167 111.554,18.663400161743162 111.919,18.886700161743164 C112.284,19.110000161743166 112.714,19.221700161743165 113.211,19.221700161743165 C113.899,19.221700161743165 114.435,18.948300161743163 114.817,18.40140016174316 C115.205,17.849900161743165 115.398,17.052400161743165 115.398,16.008800161743167 zM118.953,19.775400161743164 H118.133 V9.275400161743164 H118.953 V19.775400161743164 zM125.851,19.775400161743164 C125.769,19.543000161743166 125.71600000000001,19.19890016174316 125.69300000000001,18.74320016174316 C125.406,19.116900161743168 125.03899999999999,19.40630016174316 124.593,19.611300161743166 C124.151,19.81190016174316 123.681,19.91210016174316 123.185,19.91210016174316 C122.474,19.91210016174316 121.897,19.71390016174316 121.455,19.317400161743166 C121.018,18.920900161743162 120.799,18.419600161743162 120.799,17.813500161743164 C120.799,17.093400161743162 121.097,16.52380016174316 121.694,16.10450016174316 C122.296,15.685200161743161 123.132,15.475600161743166 124.203,15.475600161743166 H125.68700000000001 V14.634800161743165 C125.68700000000001,14.106100161743164 125.52199999999999,13.69140016174316 125.19399999999999,13.390600161743166 C124.871,13.085300161743163 124.397,12.932600161743167 123.772,12.932600161743167 C123.203,12.932600161743167 122.731,13.078500161743165 122.357,13.370100161743167 C121.984,13.661800161743166 121.797,14.012700161743162 121.797,14.422900161743165 L120.977,14.416000161743163 C120.977,13.828100161743166 121.25,13.320000161743167 121.797,12.891600161743163 C122.344,12.458700161743163 123.016,12.242200161743163 123.813,12.242200161743163 C124.638,12.242200161743163 125.28800000000001,12.449600161743163 125.762,12.864300161743166 C126.24000000000001,13.274400161743166 126.48599999999999,13.848600161743164 126.5,14.586900161743166 V18.086900161743166 C126.5,18.802400161743165 126.57499999999999,19.337900161743164 126.726,19.693400161743163 V19.775400161743164 H125.851 zM123.28,19.187500161743166 C123.827,19.187500161743166 124.315,19.055300161743162 124.743,18.791000161743163 C125.17599999999999,18.526700161743165 125.49100000000001,18.173500161743164 125.68700000000001,17.731500161743163 V16.10450016174316 H124.224 C123.408,16.113600161743165 122.77,16.264000161743162 122.31,16.55570016174316 C121.849,16.842800161743163 121.619,17.239300161743166 121.619,17.745100161743167 C121.619,18.159800161743163 121.772,18.50390016174316 122.077,18.777400161743167 C122.387,19.05080016174316 122.788,19.187500161743166 123.28,19.187500161743166 zM129.959,10.485400161743165 V12.378900161743164 H131.49 V13.048800161743166 H129.959 V17.977500161743166 C129.959,18.38770016174316 130.032,18.693000161743164 130.178,18.893600161743166 C130.328,19.094100161743164 130.576,19.194300161743165 130.923,19.194300161743165 C131.06,19.194300161743165 131.281,19.171600161743164 131.586,19.126000161743164 L131.62,19.795900161743162 C131.406,19.873400161743163 131.114,19.91210016174316 130.745,19.91210016174316 C130.185,19.91210016174316 129.777,19.750300161743162 129.521,19.426800161743166 C129.266,19.098600161743164 129.139,18.617800161743162 129.139,17.984400161743167 V13.048800161743166 H127.77799999999999 V12.378900161743164 H129.139 V10.485400161743165 H129.959 zM136.05,19.91210016174316 C135.421,19.91210016174316 134.851,19.757200161743164 134.341,19.447300161743165 C133.835,19.137400161743166 133.441,18.706700161743164 133.158,18.155300161743163 C132.876,17.599300161743166 132.734,16.977200161743163 132.734,16.289100161743164 V15.995100161743167 C132.734,15.284200161743165 132.871,14.643900161743161 133.145,14.074200161743164 C133.423,13.504600161743163 133.808,13.058000161743166 134.3,12.734400161743164 C134.792,12.406300161743165 135.325,12.242200161743163 135.899,12.242200161743163 C136.797,12.242200161743163 137.508,12.549800161743164 138.032,13.165000161743166 C138.561,13.775700161743167 138.825,14.612000161743161 138.825,15.673800161743166 V16.131800161743165 H133.548 V16.289100161743164 C133.548,17.127600161743167 133.787,17.827200161743164 134.266,18.38770016174316 C134.749,18.943700161743166 135.355,19.221700161743165 136.084,19.221700161743165 C136.521,19.221700161743165 136.907,19.141900161743166 137.239,18.982400161743165 C137.576,18.822900161743163 137.882,18.56770016174316 138.155,18.216800161743166 L138.668,18.606500161743163 C138.066,19.476900161743167 137.194,19.91210016174316 136.05,19.91210016174316 zM135.899,12.939500161743162 C135.284,12.939500161743162 134.765,13.165000161743166 134.341,13.616200161743166 C133.922,14.067400161743166 133.666,14.673500161743164 133.575,15.434600161743163 H138.012 V15.345700161743167 C137.989,14.634800161743165 137.786,14.056000161743164 137.403,13.609400161743167 C137.021,13.162800161743164 136.519,12.939500161743162 135.899,12.939500161743162 zM149.646,17.328100161743166 C149.646,16.776700161743165 149.453,16.341500161743163 149.065,16.022500161743167 C148.678,15.698900161743161 147.969,15.393600161743166 146.939,15.106500161743163 C145.91,14.814800161743165 145.158,14.498100161743167 144.684,14.156300161743161 C144.009,13.673200161743168 143.672,13.039700161743163 143.672,12.255900161743163 C143.672,11.494800161743164 143.984,10.877300161743165 144.608,10.403300161743164 C145.237,9.924800161743164 146.039,9.685600161743164 147.015,9.685600161743164 C147.675,9.685600161743164 148.266,9.813200161743165 148.785,10.068400161743163 C149.309,10.323600161743165 149.715,10.679000161743165 150.002,11.134800161743165 C150.289,11.590500161743165 150.433,12.098600161743164 150.433,12.659200161743165 H149.585 C149.585,11.980200161743163 149.353,11.435600161743164 148.888,11.025400161743164 C148.423,10.610700161743164 147.799,10.403300161743164 147.015,10.403300161743164 C146.254,10.403300161743164 145.647,10.574200161743164 145.196,10.916000161743163 C144.745,11.253300161743166 144.52,11.695300161743162 144.52,12.242200161743163 C144.52,12.748100161743164 144.722,13.160500161743165 145.128,13.479500161743161 C145.534,13.798500161743164 146.183,14.081100161743166 147.076,14.327200161743164 C147.969,14.568700161743166 148.646,14.821600161743163 149.106,15.085900161743162 C149.567,15.345700161743167 149.913,15.657900161743164 150.146,16.022500161743167 C150.378,16.387100161743163 150.494,16.81770016174316 150.494,17.31450016174316 C150.494,18.09830016174316 150.18,18.727200161743163 149.551,19.201200161743166 C148.926,19.675100161743167 148.102,19.91210016174316 147.076,19.91210016174316 C146.374,19.91210016174316 145.729,19.786800161743166 145.142,19.536100161743164 C144.558,19.285500161743165 144.114,18.934600161743163 143.809,18.483400161743162 C143.508,18.032200161743162 143.357,17.515000161743167 143.357,16.931600161743162 H144.198 C144.198,17.633500161743164 144.46,18.187200161743164 144.984,18.592800161743163 C145.508,18.998400161743163 146.206,19.201200161743166 147.076,19.201200161743166 C147.851,19.201200161743166 148.473,19.030300161743163 148.942,18.688500161743164 C149.412,18.346700161743165 149.646,17.893200161743167 149.646,17.328100161743166 zM152.935,13.629900161743166 C153.203,13.187800161743162 153.548,12.846000161743163 153.967,12.604500161743164 C154.386,12.363000161743166 154.844,12.242200161743163 155.341,12.242200161743163 C156.134,12.242200161743163 156.724,12.465500161743165 157.111,12.912100161743162 C157.499,13.358700161743165 157.695,14.028700161743167 157.699,14.921900161743167 V19.775400161743164 H156.886 V14.915000161743166 C156.881,14.254200161743164 156.74,13.762100161743163 156.462,13.438500161743164 C156.188,13.114900161743165 155.749,12.953100161743166 155.143,12.953100161743166 C154.637,12.953100161743166 154.188,13.112600161743167 153.796,13.431600161743162 C153.409,13.746100161743165 153.121,14.172200161743163 152.935,14.710000161743167 V19.775400161743164 H152.121 V9.275400161743164 H152.935 V13.629900161743166 zM159.354,15.967800161743163 C159.354,15.256800161743165 159.49,14.616500161743161 159.764,14.046900161743167 C160.042,13.477200161743163 160.431,13.035200161743163 160.933,12.720700161743164 C161.438,12.401700161743165 162.01,12.242200161743163 162.648,12.242200161743163 C163.633,12.242200161743163 164.43,12.588600161743162 165.041,13.281300161743161 C165.652,13.969400161743167 165.957,14.883100161743165 165.957,16.022500161743167 V16.193400161743163 C165.957,16.908900161743162 165.818,17.553700161743166 165.54,18.127900161743163 C165.267,18.69760016174316 164.879,19.137400161743166 164.378,19.447300161743165 C163.877,19.757200161743164 163.305,19.91210016174316 162.662,19.91210016174316 C161.682,19.91210016174316 160.885,19.568000161743164 160.27,18.879900161743166 C159.659,18.187200161743164 159.354,17.271200161743167 159.354,16.131800161743165 V15.967800161743163 zM160.174,16.193400161743163 C160.174,17.077500161743167 160.402,17.804400161743168 160.857,18.37400016174316 C161.318,18.939100161743163 161.919,19.221700161743165 162.662,19.221700161743165 C163.4,19.221700161743165 163.997,18.939100161743163 164.453,18.37400016174316 C164.913,17.804400161743168 165.144,17.054700161743163 165.144,16.125000161743166 V15.967800161743163 C165.144,15.402700161743162 165.039,14.885400161743163 164.829,14.416000161743163 C164.619,13.946600161743163 164.326,13.584300161743165 163.947,13.329100161743163 C163.569,13.069300161743165 163.136,12.939500161743162 162.648,12.939500161743162 C161.919,12.939500161743162 161.325,13.226600161743164 160.864,13.800800161743162 C160.404,14.370500161743166 160.174,15.117800161743162 160.174,16.043000161743166 V16.193400161743163 zM173.6,16.152400161743167 C173.6,17.305300161743162 173.344,18.221400161743162 172.834,18.900400161743164 C172.324,19.574900161743166 171.64,19.91210016174316 170.783,19.91210016174316 C169.771,19.91210016174316 168.997,19.556600161743162 168.459,18.845700161743167 V22.619200161743166 H167.646 V12.378900161743164 H168.404 L168.445,13.424800161743164 C168.979,12.636400161743165 169.751,12.242200161743163 170.763,12.242200161743163 C171.647,12.242200161743163 172.34,12.577200161743164 172.841,13.247100161743163 C173.347,13.917000161743161 173.6,14.846700161743165 173.6,16.036100161743164 V16.152400161743167 zM172.779,16.008800161743167 C172.779,15.065400161743163 172.586,14.320300161743162 172.198,13.773400161743162 C171.811,13.226600161743164 171.271,12.953100161743166 170.578,12.953100161743166 C170.077,12.953100161743166 169.646,13.073900161743161 169.286,13.315400161743163 C168.926,13.557000161743161 168.65,13.907900161743164 168.459,14.368200161743161 V17.916000161743163 C168.655,18.339900161743167 168.935,18.663400161743162 169.3,18.886700161743164 C169.664,19.110000161743166 170.095,19.221700161743165 170.592,19.221700161743165 C171.28,19.221700161743165 171.815,18.948300161743163 172.198,18.40140016174316 C172.586,17.849900161743165 172.779,17.052400161743165 172.779,16.008800161743167 zM186.369,15.338900161743162 C186.369,16.254900161743166 186.21,17.059300161743167 185.891,17.75200016174316 C185.576,18.444700161743164 185.125,18.977900161743165 184.537,19.351600161743164 C183.949,19.725300161743164 183.27,19.91210016174316 182.5,19.91210016174316 C181.338,19.91210016174316 180.399,19.497400161743165 179.684,18.668000161743166 C178.968,17.834000161743162 178.61,16.710600161743166 178.61,15.297900161743165 V14.272500161743167 C178.61,13.365600161743167 178.77,12.563500161743164 179.089,11.866200161743166 C179.412,11.164400161743163 179.868,10.626600161743163 180.456,10.252900161743163 C181.044,9.874700161743164 181.721,9.685600161743164 182.486,9.685600161743164 C183.252,9.685600161743164 183.926,9.870100161743164 184.51,10.239300161743163 C185.098,10.608400161743162 185.551,11.130200161743165 185.87,11.804700161743163 C186.189,12.479200161743165 186.355,13.260800161743163 186.369,14.149400161743166 V15.338900161743162 zM185.528,14.258800161743167 C185.528,13.060200161743161 185.257,12.121400161743164 184.715,11.442400161743166 C184.173,10.763400161743164 183.43,10.423800161743163 182.486,10.423800161743163 C181.561,10.423800161743163 180.823,10.765600161743166 180.271,11.449200161743164 C179.725,12.128300161743166 179.451,13.078500161743165 179.451,14.299800161743164 V15.338900161743162 C179.451,16.519200161743164 179.725,17.455700161743167 180.271,18.14840016174316 C180.818,18.836600161743164 181.561,19.18070016174316 182.5,19.18070016174316 C183.452,19.18070016174316 184.195,18.841200161743167 184.729,18.16210016174316 C185.262,17.478500161743163 185.528,16.52830016174316 185.528,15.311500161743162 V14.258800161743167 zM189.076,12.378900161743164 L189.104,13.643600161743166 C189.382,13.187800161743162 189.728,12.841500161743163 190.143,12.604500161743164 C190.557,12.363000161743166 191.015,12.242200161743163 191.517,12.242200161743163 C192.31,12.242200161743163 192.9,12.465500161743165 193.287,12.912100161743162 C193.674,13.358700161743165 193.87,14.028700161743167 193.875,14.921900161743167 V19.775400161743164 H193.062 V14.915000161743166 C193.057,14.254200161743164 192.916,13.762100161743163 192.638,13.438500161743164 C192.364,13.114900161743165 191.924,12.953100161743166 191.318,12.953100161743166 C190.813,12.953100161743166 190.364,13.112600161743167 189.972,13.431600161743162 C189.584,13.746100161743165 189.297,14.172200161743163 189.11,14.710000161743167 V19.775400161743164 H188.297 V12.378900161743164 H189.076 zM196.91,19.775400161743164 H196.09 V9.275400161743164 H196.91 V19.775400161743164 zM200.055,19.775400161743164 H199.234 V12.378900161743164 H200.055 V19.775400161743164 zM199.091,10.239300161743163 C199.091,10.084300161743165 199.141,9.954400161743163 199.241,9.849600161743165 C199.341,9.740200161743164 199.478,9.685600161743164 199.651,9.685600161743164 C199.825,9.685600161743164 199.961,9.740200161743164 200.062,9.849600161743165 C200.166,9.954400161743163 200.219,10.084300161743165 200.219,10.239300161743163 C200.219,10.394200161743164 200.166,10.524100161743164 200.062,10.628900161743164 C199.961,10.733700161743165 199.825,10.786100161743164 199.651,10.786100161743164 C199.478,10.786100161743164 199.341,10.733700161743165 199.241,10.628900161743164 C199.141,10.524100161743164 199.091,10.394200161743164 199.091,10.239300161743163 zM203.063,12.378900161743164 L203.09,13.643600161743166 C203.368,13.187800161743162 203.714,12.841500161743163 204.129,12.604500161743164 C204.544,12.363000161743166 205.002,12.242200161743163 205.503,12.242200161743163 C206.296,12.242200161743163 206.886,12.465500161743165 207.273,12.912100161743162 C207.661,13.358700161743165 207.857,14.028700161743167 207.861,14.921900161743167 V19.775400161743164 H207.048 V14.915000161743166 C207.043,14.254200161743164 206.902,13.762100161743163 206.624,13.438500161743164 C206.351,13.114900161743165 205.911,12.953100161743166 205.305,12.953100161743166 C204.799,12.953100161743166 204.35,13.112600161743167 203.958,13.431600161743162 C203.571,13.746100161743165 203.284,14.172200161743163 203.097,14.710000161743167 V19.775400161743164 H202.283 V12.378900161743164 H203.063 zM212.845,19.91210016174316 C212.216,19.91210016174316 211.646,19.757200161743164 211.136,19.447300161743165 C210.63,19.137400161743166 210.236,18.706700161743164 209.953,18.155300161743163 C209.671,17.599300161743166 209.529,16.977200161743163 209.529,16.289100161743164 V15.995100161743167 C209.529,15.284200161743165 209.666,14.643900161743161 209.939,14.074200161743164 C210.217,13.504600161743163 210.603,13.058000161743166 211.095,12.734400161743164 C211.587,12.406300161743165 212.12,12.242200161743163 212.694,12.242200161743163 C213.592,12.242200161743163 214.303,12.549800161743164 214.827,13.165000161743166 C215.356,13.775700161743167 215.62,14.612000161743161 215.62,15.673800161743166 V16.131800161743165 H210.343 V16.289100161743164 C210.343,17.127600161743167 210.582,17.827200161743164 211.061,18.38770016174316 C211.544,18.943700161743166 212.15,19.221700161743165 212.879,19.221700161743165 C213.316,19.221700161743165 213.701,19.141900161743166 214.034,18.982400161743165 C214.371,18.822900161743163 214.677,18.56770016174316 214.95,18.216800161743166 L215.463,18.606500161743163 C214.861,19.476900161743167 213.989,19.91210016174316 212.845,19.91210016174316 zM212.694,12.939500161743162 C212.079,12.939500161743162 211.56,13.165000161743166 211.136,13.616200161743166 C210.716,14.067400161743166 210.461,14.673500161743164 210.37,15.434600161743163 H214.807 V15.345700161743167 C214.784,14.634800161743165 214.581,14.056000161743164 214.198,13.609400161743167 C213.815,13.162800161743164 213.314,12.939500161743162 212.694,12.939500161743162 z" fill="#646464" id="svg_3" class=""/></g></svg>