<svg width="242" height="43" viewBox="0 0 242 43" fill="none" xmlns="http://www.w3.org/2000/svg">
<path d="M21.875 35.3125C21.8424 35.7357 21.6634 36.0449 21.3379 36.2402L13.0859 40.8301C12.9232 40.9603 12.7279 41.0254 12.5 41.0254C12.2721 41.0254 12.0768 40.9603 11.9141 40.8301L3.66211 36.2402C3.33659 36.0449 3.15755 35.7357 3.125 35.3125V25.9375C3.15755 25.5143 3.33659 25.2051 3.66211 25.0098L11.9141 20.4199C12.0768 20.2897 12.2721 20.2246 12.5 20.2246C12.7279 20.2246 12.9232 20.2897 13.0859 20.4199L21.3379 25.0098C21.6634 25.2051 21.8424 25.5143 21.875 25.9375V35.3125ZM12.5 22.4707L6.29883 25.9375L12.5 29.4043L18.7012 25.9375L12.5 22.4707ZM5.22461 34.6777L11.4746 38.2422V31.2109L5.22461 27.6953V34.6777ZM19.7754 34.6777V27.6953L13.5254 31.2109V38.2422L19.7754 34.6777Z" fill="#71C8FD"/>
<path d="M39.814 30.948C40.7233 31.2267 41.42 31.696 41.904 32.356C42.388 33.0013 42.63 33.8007 42.63 34.754C42.63 35.6047 42.4027 36.3527 41.948 36.998C41.508 37.6287 40.87 38.12 40.034 38.472C39.2127 38.824 38.2447 39 37.13 39H31.278C30.6767 39 30.2147 38.8387 29.892 38.516C29.5693 38.1933 29.408 37.7313 29.408 37.13V25.36C29.408 24.7587 29.5693 24.2967 29.892 23.974C30.2147 23.6513 30.6767 23.49 31.278 23.49H36.91C38.538 23.49 39.8287 23.8567 40.782 24.59C41.75 25.3087 42.234 26.284 42.234 27.516C42.234 28.308 42.0213 29.012 41.596 29.628C41.1707 30.2293 40.5767 30.6693 39.814 30.948ZM33.346 29.584H36.228C36.9907 29.584 37.548 29.4667 37.9 29.232C38.252 28.9973 38.428 28.6233 38.428 28.11C38.428 27.5673 38.252 27.1713 37.9 26.922C37.548 26.6727 36.9907 26.548 36.228 26.548H33.346V29.584ZM36.624 35.942C37.4307 35.942 38.0027 35.8173 38.34 35.568C38.692 35.304 38.868 34.8787 38.868 34.292C38.868 33.7053 38.692 33.2873 38.34 33.038C38.0027 32.774 37.4307 32.642 36.624 32.642H33.346V35.942H36.624ZM52.0749 39.198C50.4909 39.198 49.1122 38.8753 47.9389 38.23C46.7802 37.57 45.8855 36.646 45.2549 35.458C44.6242 34.2553 44.3089 32.8473 44.3089 31.234C44.3089 29.6207 44.6242 28.22 45.2549 27.032C45.8855 25.8293 46.7802 24.9053 47.9389 24.26C49.1122 23.6147 50.4909 23.292 52.0749 23.292C53.6589 23.292 55.0302 23.6147 56.1889 24.26C57.3622 24.9053 58.2569 25.8293 58.8729 27.032C59.5035 28.22 59.8189 29.6207 59.8189 31.234C59.8189 32.8473 59.5035 34.2553 58.8729 35.458C58.2422 36.646 57.3402 37.57 56.1669 38.23C55.0082 38.8753 53.6442 39.198 52.0749 39.198ZM52.0749 36.096C53.2482 36.096 54.1649 35.6853 54.8249 34.864C55.4849 34.028 55.8149 32.818 55.8149 31.234C55.8149 29.65 55.4775 28.4473 54.8029 27.626C54.1429 26.8047 53.2335 26.394 52.0749 26.394C50.9015 26.394 49.9849 26.8047 49.3249 27.626C48.6649 28.4327 48.3349 29.6353 48.3349 31.234C48.3349 32.8327 48.6649 34.0427 49.3249 34.864C49.9849 35.6853 50.9015 36.096 52.0749 36.096ZM74.35 36.074C74.6727 36.4407 74.834 36.844 74.834 37.284C74.834 37.7827 74.636 38.2227 74.24 38.604C73.8587 38.9707 73.426 39.154 72.942 39.154C72.4287 39.154 71.9814 38.934 71.6 38.494L67.816 33.962L63.966 38.494C63.5847 38.934 63.1447 39.154 62.646 39.154C62.162 39.154 61.722 38.9633 61.326 38.582C60.9447 38.2007 60.754 37.7607 60.754 37.262C60.754 36.8367 60.908 36.4407 61.216 36.074L65.44 31.19L61.326 26.416C61.0034 26.0347 60.842 25.6387 60.842 25.228C60.842 24.7293 61.0327 24.2967 61.414 23.93C61.81 23.5487 62.2574 23.358 62.756 23.358C63.2694 23.358 63.7167 23.578 64.098 24.018L67.816 28.418L71.512 24.018C71.864 23.578 72.2967 23.358 72.81 23.358C73.3087 23.358 73.7487 23.5487 74.13 23.93C74.526 24.2967 74.724 24.7293 74.724 25.228C74.724 25.6533 74.57 26.0493 74.262 26.416L70.148 31.19L74.35 36.074Z" fill="white"/>
<path d="M90.0117 29.7646H86.6006V39H85.7598V29.7646H82.3555V29.0469H90.0117V29.7646ZM93.6143 39.1367C92.9854 39.1367 92.4157 38.9818 91.9053 38.6719C91.3994 38.362 91.0052 37.9313 90.7227 37.3799C90.4401 36.8239 90.2988 36.2018 90.2988 35.5137V35.2197C90.2988 34.5088 90.4355 33.8685 90.709 33.2988C90.987 32.7292 91.3721 32.2826 91.8643 31.959C92.3564 31.6309 92.8896 31.4668 93.4639 31.4668C94.3617 31.4668 95.0726 31.7744 95.5967 32.3896C96.1253 33.0003 96.3896 33.8366 96.3896 34.8984V35.3564H91.1123V35.5137C91.1123 36.3522 91.3516 37.0518 91.8301 37.6123C92.3132 38.1683 92.9193 38.4463 93.6484 38.4463C94.0859 38.4463 94.471 38.3665 94.8037 38.207C95.141 38.0475 95.4463 37.7923 95.7197 37.4414L96.2324 37.8311C95.6309 38.7015 94.7581 39.1367 93.6143 39.1367ZM93.4639 32.1641C92.8486 32.1641 92.3291 32.3896 91.9053 32.8408C91.486 33.292 91.2308 33.8981 91.1396 34.6592H95.5762V34.5703C95.5534 33.8594 95.3506 33.2806 94.9678 32.834C94.585 32.3874 94.0837 32.1641 93.4639 32.1641ZM98.7275 31.6035L98.7549 32.8066C99.0283 32.36 99.3701 32.0251 99.7803 31.8018C100.19 31.5785 100.646 31.4668 101.147 31.4668C102.314 31.4668 103.055 31.9453 103.369 32.9023C103.633 32.4421 103.987 32.0889 104.429 31.8428C104.871 31.5921 105.358 31.4668 105.892 31.4668C107.478 31.4668 108.286 32.3327 108.318 34.0645V39H107.498V34.126C107.493 33.4652 107.35 32.9753 107.067 32.6562C106.789 32.3372 106.334 32.1777 105.7 32.1777C105.112 32.1868 104.616 32.3783 104.21 32.752C103.804 33.1211 103.579 33.5723 103.533 34.1055V39H102.713V34.0645C102.708 33.431 102.558 32.9593 102.262 32.6494C101.97 32.335 101.519 32.1777 100.908 32.1777C100.393 32.1777 99.9512 32.3258 99.582 32.6221C99.2129 32.9137 98.9395 33.349 98.7617 33.9277V39H97.9414V31.6035H98.7275ZM116.344 35.377C116.344 36.5299 116.089 37.446 115.578 38.125C115.068 38.7995 114.384 39.1367 113.527 39.1367C112.516 39.1367 111.741 38.7812 111.203 38.0703V41.8438H110.39V31.6035H111.148L111.189 32.6494C111.723 31.861 112.495 31.4668 113.507 31.4668C114.391 31.4668 115.084 31.8018 115.585 32.4717C116.091 33.1416 116.344 34.0713 116.344 35.2607V35.377ZM115.523 35.2334C115.523 34.29 115.33 33.5449 114.942 32.998C114.555 32.4512 114.015 32.1777 113.322 32.1777C112.821 32.1777 112.39 32.2985 112.03 32.54C111.67 32.7816 111.395 33.1325 111.203 33.5928V37.1406C111.399 37.5645 111.679 37.888 112.044 38.1113C112.409 38.3346 112.839 38.4463 113.336 38.4463C114.024 38.4463 114.56 38.1729 114.942 37.626C115.33 37.0745 115.523 36.277 115.523 35.2334ZM119.078 39H118.258V28.5H119.078V39ZM125.976 39C125.894 38.7676 125.841 38.4235 125.818 37.9678C125.531 38.3415 125.164 38.6309 124.718 38.8359C124.276 39.0365 123.806 39.1367 123.31 39.1367C122.599 39.1367 122.022 38.9385 121.58 38.542C121.143 38.1455 120.924 37.6442 120.924 37.0381C120.924 36.318 121.222 35.7484 121.819 35.3291C122.421 34.9098 123.257 34.7002 124.328 34.7002H125.812V33.8594C125.812 33.3307 125.647 32.916 125.319 32.6152C124.996 32.3099 124.522 32.1572 123.897 32.1572C123.328 32.1572 122.856 32.3031 122.482 32.5947C122.109 32.8864 121.922 33.2373 121.922 33.6475L121.102 33.6406C121.102 33.0527 121.375 32.5446 121.922 32.1162C122.469 31.6833 123.141 31.4668 123.938 31.4668C124.763 31.4668 125.413 31.6742 125.887 32.0889C126.365 32.499 126.611 33.0732 126.625 33.8115V37.3115C126.625 38.027 126.7 38.5625 126.851 38.918V39H125.976ZM123.405 38.4121C123.952 38.4121 124.44 38.2799 124.868 38.0156C125.301 37.7513 125.616 37.3981 125.812 36.9561V35.3291H124.349C123.533 35.3382 122.895 35.4886 122.435 35.7803C121.974 36.0674 121.744 36.4639 121.744 36.9697C121.744 37.3844 121.897 37.7285 122.202 38.002C122.512 38.2754 122.913 38.4121 123.405 38.4121ZM130.084 29.71V31.6035H131.615V32.2734H130.084V37.2021C130.084 37.6123 130.157 37.9176 130.303 38.1182C130.453 38.3187 130.701 38.4189 131.048 38.4189C131.185 38.4189 131.406 38.3962 131.711 38.3506L131.745 39.0205C131.531 39.098 131.239 39.1367 130.87 39.1367C130.31 39.1367 129.902 38.9749 129.646 38.6514C129.391 38.3232 129.264 37.8424 129.264 37.209V32.2734H127.903V31.6035H129.264V29.71H130.084ZM136.175 39.1367C135.546 39.1367 134.976 38.9818 134.466 38.6719C133.96 38.362 133.566 37.9313 133.283 37.3799C133.001 36.8239 132.859 36.2018 132.859 35.5137V35.2197C132.859 34.5088 132.996 33.8685 133.27 33.2988C133.548 32.7292 133.933 32.2826 134.425 31.959C134.917 31.6309 135.45 31.4668 136.024 31.4668C136.922 31.4668 137.633 31.7744 138.157 32.3896C138.686 33.0003 138.95 33.8366 138.95 34.8984V35.3564H133.673V35.5137C133.673 36.3522 133.912 37.0518 134.391 37.6123C134.874 38.1683 135.48 38.4463 136.209 38.4463C136.646 38.4463 137.032 38.3665 137.364 38.207C137.701 38.0475 138.007 37.7923 138.28 37.4414L138.793 37.8311C138.191 38.7015 137.319 39.1367 136.175 39.1367ZM136.024 32.1641C135.409 32.1641 134.89 32.3896 134.466 32.8408C134.047 33.292 133.791 33.8981 133.7 34.6592H138.137V34.5703C138.114 33.8594 137.911 33.2806 137.528 32.834C137.146 32.3874 136.644 32.1641 136.024 32.1641ZM149.771 36.5527C149.771 36.0013 149.578 35.5661 149.19 35.2471C148.803 34.9235 148.094 34.6182 147.064 34.3311C146.035 34.0394 145.283 33.7227 144.809 33.3809C144.134 32.8978 143.797 32.2643 143.797 31.4805C143.797 30.7194 144.109 30.1019 144.733 29.6279C145.362 29.1494 146.164 28.9102 147.14 28.9102C147.8 28.9102 148.391 29.0378 148.91 29.293C149.434 29.5482 149.84 29.9036 150.127 30.3594C150.414 30.8151 150.558 31.3232 150.558 31.8838H149.71C149.71 31.2048 149.478 30.6602 149.013 30.25C148.548 29.8353 147.924 29.6279 147.14 29.6279C146.379 29.6279 145.772 29.7988 145.321 30.1406C144.87 30.4779 144.645 30.9199 144.645 31.4668C144.645 31.9727 144.847 32.3851 145.253 32.7041C145.659 33.0231 146.308 33.3057 147.201 33.5518C148.094 33.7933 148.771 34.0462 149.231 34.3105C149.692 34.5703 150.038 34.8825 150.271 35.2471C150.503 35.6117 150.619 36.0423 150.619 36.5391C150.619 37.3229 150.305 37.9518 149.676 38.4258C149.051 38.8997 148.227 39.1367 147.201 39.1367C146.499 39.1367 145.854 39.0114 145.267 38.7607C144.683 38.5101 144.239 38.1592 143.934 37.708C143.633 37.2568 143.482 36.7396 143.482 36.1562H144.323C144.323 36.8581 144.585 37.4118 145.109 37.8174C145.633 38.223 146.331 38.4258 147.201 38.4258C147.976 38.4258 148.598 38.2549 149.067 37.9131C149.537 37.5713 149.771 37.1178 149.771 36.5527ZM153.06 32.8545C153.328 32.4124 153.673 32.0706 154.092 31.8291C154.511 31.5876 154.969 31.4668 155.466 31.4668C156.259 31.4668 156.849 31.6901 157.236 32.1367C157.624 32.5833 157.82 33.2533 157.824 34.1465V39H157.011V34.1396C157.006 33.4788 156.865 32.9867 156.587 32.6631C156.313 32.3395 155.874 32.1777 155.268 32.1777C154.762 32.1777 154.313 32.3372 153.921 32.6562C153.534 32.9707 153.246 33.3968 153.06 33.9346V39H152.246V28.5H153.06V32.8545ZM159.479 35.1924C159.479 34.4814 159.615 33.8411 159.889 33.2715C160.167 32.7018 160.556 32.2598 161.058 31.9453C161.563 31.6263 162.135 31.4668 162.773 31.4668C163.758 31.4668 164.555 31.8132 165.166 32.5059C165.777 33.194 166.082 34.1077 166.082 35.2471V35.418C166.082 36.1335 165.943 36.7783 165.665 37.3525C165.392 37.9222 165.004 38.362 164.503 38.6719C164.002 38.9818 163.43 39.1367 162.787 39.1367C161.807 39.1367 161.01 38.7926 160.395 38.1045C159.784 37.4118 159.479 36.4958 159.479 35.3564V35.1924ZM160.299 35.418C160.299 36.3021 160.527 37.029 160.982 37.5986C161.443 38.1637 162.044 38.4463 162.787 38.4463C163.525 38.4463 164.122 38.1637 164.578 37.5986C165.038 37.029 165.269 36.2793 165.269 35.3496V35.1924C165.269 34.6273 165.164 34.11 164.954 33.6406C164.744 33.1712 164.451 32.8089 164.072 32.5537C163.694 32.2939 163.261 32.1641 162.773 32.1641C162.044 32.1641 161.45 32.4512 160.989 33.0254C160.529 33.5951 160.299 34.3424 160.299 35.2676V35.418ZM173.725 35.377C173.725 36.5299 173.469 37.446 172.959 38.125C172.449 38.7995 171.765 39.1367 170.908 39.1367C169.896 39.1367 169.122 38.7812 168.584 38.0703V41.8438H167.771V31.6035H168.529L168.57 32.6494C169.104 31.861 169.876 31.4668 170.888 31.4668C171.772 31.4668 172.465 31.8018 172.966 32.4717C173.472 33.1416 173.725 34.0713 173.725 35.2607V35.377ZM172.904 35.2334C172.904 34.29 172.711 33.5449 172.323 32.998C171.936 32.4512 171.396 32.1777 170.703 32.1777C170.202 32.1777 169.771 32.2985 169.411 32.54C169.051 32.7816 168.775 33.1325 168.584 33.5928V37.1406C168.78 37.5645 169.06 37.888 169.425 38.1113C169.789 38.3346 170.22 38.4463 170.717 38.4463C171.405 38.4463 171.94 38.1729 172.323 37.626C172.711 37.0745 172.904 36.277 172.904 35.2334ZM186.494 34.5635C186.494 35.4795 186.335 36.2839 186.016 36.9766C185.701 37.6693 185.25 38.2025 184.662 38.5762C184.074 38.9499 183.395 39.1367 182.625 39.1367C181.463 39.1367 180.524 38.722 179.809 37.8926C179.093 37.0586 178.735 35.9352 178.735 34.5225V33.4971C178.735 32.5902 178.895 31.7881 179.214 31.0908C179.537 30.389 179.993 29.8512 180.581 29.4775C181.169 29.0993 181.846 28.9102 182.611 28.9102C183.377 28.9102 184.051 29.0947 184.635 29.4639C185.223 29.833 185.676 30.3548 185.995 31.0293C186.314 31.7038 186.48 32.4854 186.494 33.374V34.5635ZM185.653 33.4834C185.653 32.2848 185.382 31.346 184.84 30.667C184.298 29.988 183.555 29.6484 182.611 29.6484C181.686 29.6484 180.948 29.9902 180.396 30.6738C179.85 31.3529 179.576 32.3031 179.576 33.5244V34.5635C179.576 35.7438 179.85 36.6803 180.396 37.373C180.943 38.0612 181.686 38.4053 182.625 38.4053C183.577 38.4053 184.32 38.0658 184.854 37.3867C185.387 36.7031 185.653 35.7529 185.653 34.5361V33.4834ZM189.201 31.6035L189.229 32.8682C189.507 32.4124 189.853 32.0661 190.268 31.8291C190.682 31.5876 191.14 31.4668 191.642 31.4668C192.435 31.4668 193.025 31.6901 193.412 32.1367C193.799 32.5833 193.995 33.2533 194 34.1465V39H193.187V34.1396C193.182 33.4788 193.041 32.9867 192.763 32.6631C192.489 32.3395 192.049 32.1777 191.443 32.1777C190.938 32.1777 190.489 32.3372 190.097 32.6562C189.709 32.9707 189.422 33.3968 189.235 33.9346V39H188.422V31.6035H189.201ZM197.035 39H196.215V28.5H197.035V39ZM200.18 39H199.359V31.6035H200.18V39ZM199.216 29.4639C199.216 29.3089 199.266 29.179 199.366 29.0742C199.466 28.9648 199.603 28.9102 199.776 28.9102C199.95 28.9102 200.086 28.9648 200.187 29.0742C200.291 29.179 200.344 29.3089 200.344 29.4639C200.344 29.6188 200.291 29.7487 200.187 29.8535C200.086 29.9583 199.95 30.0107 199.776 30.0107C199.603 30.0107 199.466 29.9583 199.366 29.8535C199.266 29.7487 199.216 29.6188 199.216 29.4639ZM203.188 31.6035L203.215 32.8682C203.493 32.4124 203.839 32.0661 204.254 31.8291C204.669 31.5876 205.127 31.4668 205.628 31.4668C206.421 31.4668 207.011 31.6901 207.398 32.1367C207.786 32.5833 207.982 33.2533 207.986 34.1465V39H207.173V34.1396C207.168 33.4788 207.027 32.9867 206.749 32.6631C206.476 32.3395 206.036 32.1777 205.43 32.1777C204.924 32.1777 204.475 32.3372 204.083 32.6562C203.696 32.9707 203.409 33.3968 203.222 33.9346V39H202.408V31.6035H203.188ZM212.97 39.1367C212.341 39.1367 211.771 38.9818 211.261 38.6719C210.755 38.362 210.361 37.9313 210.078 37.3799C209.796 36.8239 209.654 36.2018 209.654 35.5137V35.2197C209.654 34.5088 209.791 33.8685 210.064 33.2988C210.342 32.7292 210.728 32.2826 211.22 31.959C211.712 31.6309 212.245 31.4668 212.819 31.4668C213.717 31.4668 214.428 31.7744 214.952 32.3896C215.481 33.0003 215.745 33.8366 215.745 34.8984V35.3564H210.468V35.5137C210.468 36.3522 210.707 37.0518 211.186 37.6123C211.669 38.1683 212.275 38.4463 213.004 38.4463C213.441 38.4463 213.826 38.3665 214.159 38.207C214.496 38.0475 214.802 37.7923 215.075 37.4414L215.588 37.8311C214.986 38.7015 214.114 39.1367 212.97 39.1367ZM212.819 32.1641C212.204 32.1641 211.685 32.3896 211.261 32.8408C210.841 33.292 210.586 33.8981 210.495 34.6592H214.932V34.5703C214.909 33.8594 214.706 33.2806 214.323 32.834C213.94 32.3874 213.439 32.1641 212.819 32.1641Z" fill="white"/>
</svg>
